<?xml version="1.0" encoding="UTF-8"?>
<svg width="512px" height="512px" viewBox="0 0 512 512" version="1.1" xmlns="http://www.w3.org/2000/svg" xmlns:xlink="http://www.w3.org/1999/xlink">
    <!-- Generator: Sketch 58 (84663) - https://sketch.com -->
    <title>logo</title>
    <desc>Created with Sketch.</desc>
    <g id="logo" stroke="none" stroke-width="1" fill="none" fill-rule="evenodd">
        <path d="M228.565109,358.388407 L170.300227,408.207672 C169.460707,408.925502 168.198226,408.826853 167.480396,407.987333 C167.08775,407.528124 166.923739,406.916026 167.034175,406.322016 L181.046484,330.953516 L105.677984,344.965825 C104.592023,345.167723 103.548006,344.45105 103.346107,343.365089 C103.235671,342.771079 103.399682,342.158982 103.792328,341.699773 L153.611593,283.434891 L62.8504372,257.925396 C61.7870702,257.626524 61.1673245,256.522212 61.4661963,255.458845 C61.6548252,254.787715 62.1793077,254.263233 62.8504372,254.074604 L153.611593,228.565109 L103.792328,170.300227 C103.074498,169.460707 103.173147,168.198226 104.012667,167.480396 C104.471876,167.08775 105.083974,166.923739 105.677984,167.034175 L181.046484,181.046484 L167.034175,105.677984 C166.832277,104.592023 167.54895,103.548006 168.634911,103.346107 C169.228921,103.235671 169.841018,103.399682 170.300227,103.792328 L228.565109,153.611593 L254.074604,62.8504372 C254.373476,61.7870702 255.477788,61.1673245 256.541155,61.4661963 C257.212285,61.6548252 257.736767,62.1793077 257.925396,62.8504372 L283.434891,153.611593 L341.699773,103.792328 C342.539293,103.074498 343.801774,103.173147 344.519604,104.012667 C344.91225,104.471876 345.076261,105.083974 344.965825,105.677984 L330.953516,181.046484 L406.322016,167.034175 C407.407977,166.832277 408.451994,167.54895 408.653893,168.634911 C408.764329,169.228921 408.600318,169.841018 408.207672,170.300227 L358.388407,228.565109 L449.149563,254.074604 C450.21293,254.373476 450.832676,255.477788 450.533804,256.541155 C450.345175,257.212285 449.820692,257.736767 449.149563,257.925396 L358.388407,283.434891 L408.207672,341.699773 C408.925502,342.539293 408.826853,343.801774 407.987333,344.519604 C407.528124,344.91225 406.916026,345.076261 406.322016,344.965825 L330.953516,330.953516 L344.965825,406.322016 C345.167723,407.407977 344.45105,408.451994 343.365089,408.653893 C342.771079,408.764329 342.158982,408.600318 341.699773,408.207672 L283.434891,358.388407 L257.925396,449.149563 C257.626524,450.21293 256.522212,450.832676 255.458845,450.533804 C254.787715,450.345175 254.263233,449.820692 254.074604,449.149563 L228.565109,358.388407 Z" id="Star" fill="#FFD57E"></path>
        <polygon id="Star" fill="#E26339" transform="translate(256.500000, 256.500000) rotate(-315.000000) translate(-256.500000, -256.500000) " points="256.5 302.335042 146.544896 366.455104 210.664958 256.5 146.544896 146.544896 256.5 210.664958 366.455104 146.544896 302.335042 256.5 366.455104 366.455104"></polygon>
    </g>
</svg>